<svg width="24" height="23" viewBox="0 0 24 23" fill="none" xmlns="http://www.w3.org/2000/svg">
<path d="M4 12V22H13" stroke="url(#paint0_linear_776_2172)" stroke-width="2" stroke-linecap="round" stroke-linejoin="round"/>
<path d="M20.86 8.249L12 1L1 10" stroke="url(#paint1_linear_776_2172)" stroke-width="2" stroke-linecap="round" stroke-linejoin="round"/>
<path fill-rule="evenodd" clip-rule="evenodd" d="M23 14.8172C23 17.1832 19 21.0002 19 21.0002C19 21.0002 15 17.1832 15 14.8172C15.0139 13.7772 15.4458 12.7866 16.1983 12.0685C16.9507 11.3505 17.9605 10.9655 19 11.0002C20.0395 10.9655 21.0493 11.3505 21.8017 12.0685C22.5542 12.7866 22.9861 13.7772 23 14.8172V14.8172Z" stroke="url(#paint2_linear_776_2172)" stroke-width="2" stroke-linecap="round" stroke-linejoin="round"/>
<defs>
<linearGradient id="paint0_linear_776_2172" x1="8.5" y1="12" x2="8.5" y2="22" gradientUnits="userSpaceOnUse">
<stop stop-color="#C05DEF"/>
<stop offset="1" stop-color="#135AC6"/>
</linearGradient>
<linearGradient id="paint1_linear_776_2172" x1="10.93" y1="1" x2="10.93" y2="10" gradientUnits="userSpaceOnUse">
<stop stop-color="#C05DEF"/>
<stop offset="1" stop-color="#135AC6"/>
</linearGradient>
<linearGradient id="paint2_linear_776_2172" x1="19" y1="10.998" x2="19" y2="21.0002" gradientUnits="userSpaceOnUse">
<stop stop-color="#C05DEF"/>
<stop offset="1" stop-color="#135AC6"/>
</linearGradient>
</defs>
</svg>
